:SAMPLES-PER-SECOND 30
:FULLY-SPECIFIED
:DEGREES
127
root  -80.0406 41.0209 -8.23567 3.20608 -87.1644 -8.07193
RightUpLeg  -5.32627 -10.8662 -6.07075
RightLeg  13.151 -6.40307 3.32212
RightFoot  -0.253947 0.193359 -1.98418
RightToes  0.000482159 0.542163 -0.142577
Spine  14.0859 0.33057 5.97419
Spine1  -2.01942 0.482969 3.55114
HEad  -13.0211 -1.93144 -3.9333
LeftShoulder1  4.29209 -6.58895 -36.3624
LeftArm  -19.4903 22.1567 -16.5091
LeftForeArm  23.8675 -18.7118 -2.82659
LeftHand  -0.25398 0.0180481 5.50724
RightShoulder  3.62327 6.333 30.8828
RightArm  -16.2568 -22.4819 24.7699
RightForeArm  -11.4316 16.048 5.43024
RightHand  -1.88878 5.49687 -20.3166
LeftUpLeg  -14.4781 5.0742 2.85825
LeftLeg  31.8079 0.264544 0.487968
LeftFoot  -6.29636 0.165644 -2.82116
LeftToes  1.06246e-005 4.65855e-005 -8.18504e-006
128
root  -80.4847 41.1504 -8.36876 5.14376 -87.5608 -9.83828
RightUpLeg  -4.12683 -10.3852 -5.86671
RightLeg  11.6762 -6.38025 3.57215
RightFoot  -0.0525003 0.199082 -1.99784
RightToes  0.000482159 0.542163 -0.142577
Spine  12.8983 0.227923 7.19133
Spine1  -2.52605 0.900003 0.65395
HEad  -10.6127 -2.03292 -2.99211
LeftShoulder1  3.69438 -6.05015 -32.5681
LeftArm  -17.4898 22.311 -15.1421
LeftForeArm  21.2279 -14.6486 -2.48005
LeftHand  -0.25398 0.0180481 5.50724
RightShoulder  3.64072 6.16682 31.7012
RightArm  -17.4897 -21.1795 21.1939
RightForeArm  -12.2242 15.2119 5.31913
RightHand  -1.95118 5.84694 -20.3412
LeftUpLeg  -12.4001 6.99254 3.23206
LeftLeg  26.9907 3.95817 2.51184
LeftFoot  -9.09767 0.0705848 -1.03572
LeftToes  1.06246e-005 4.65855e-005 -8.18504e-006
129
root  -80.919 41.2291 -8.44702 17.9611 -88.4596 -22.522
RightUpLeg  -3.16986 -10.0089 -5.53452
RightLeg  10.6081 -5.73584 3.82522
RightFoot  -0.187776 0.21935 -2.26149
RightToes  0.000482159 0.542163 -0.142577
Spine  11.5359 0.344539 7.75277
Spine1  -2.68829 1.22142 -0.941169
HEad  -8.48601 -1.74073 -2.56803
LeftShoulder1  3.17827 -5.47173 -29.2901
LeftArm  -16.4906 22.5086 -13.6706
LeftForeArm  19.1677 -11.0849 -2.26205
LeftHand  -0.25398 0.0180481 5.50724
RightShoulder  3.50319 5.9506 31.0962
RightArm  -18.3316 -19.5434 18.1169
RightForeArm  -12.3127 14.3392 5.18561
RightHand  -1.87652 5.65088 -19.9256
LeftUpLeg  -9.55566 9.90039 3.75186
LeftLeg  20.5287 5.55791 2.679
LeftFoot  -8.53511 0.0629326 -0.452262
LeftToes  1.06246e-005 4.65855e-005 -8.18504e-006
130
root  -81.309 41.2837 -8.46863 53.3727 -89.0529 -58.1818
RightUpLeg  -2.02094 -9.65741 -5.15679
RightLeg  9.86359 -5.19057 3.90497
RightFoot  -0.530591 0.237319 -2.54323
RightToes  0.000482159 0.542163 -0.142577
Spine  10.5854 0.536548 7.12679
Spine1  -2.61566 1.15105 0.00364271
HEad  -7.04633 -1.0154 -3.14998
LeftShoulder1  2.88694 -5.04773 -27.6114
LeftArm  -15.893 22.838 -11.7755
LeftForeArm  15.955 -8.5336 -2.03252
LeftHand  -0.25398 0.0180481 5.50724
RightShoulder  3.02986 5.5099 27.5672
RightArm  -18.4816 -17.5453 16.5495
RightForeArm  -12.9383 13.0836 5.22204
RightHand  -1.9152 5.75172 -20.1301
LeftUpLeg  -6.57067 12.0111 4.53125
LeftLeg  15.0945 4.80976 1.5474
LeftFoot  -5.65172 0.0693937 -0.704315
LeftToes  1.06246e-005 4.65855e-005 -8.18504e-006
131
root  -81.6237 41.3524 -8.4827 78.8971 -89.0749 -84.1394
RightUpLeg  -0.757939 -9.35493 -4.98857
RightLeg  9.15511 -5.06036 3.76104
RightFoot  -0.618291 0.225296 -2.44377
RightToes  0.000482159 0.542163 -0.142577
Spine  10.0852 0.63069 5.68724
Spine1  -2.08678 0.823752 1.75465
HEad  -7.04074 -0.67354 -3.68754
LeftShoulder1  2.65847 -4.59429 -26.5601
LeftArm  -16.037 22.4992 -9.86152
LeftForeArm  12.4073 -7.18951 -1.75268
LeftHand  -0.25398 0.0180481 5.50724
RightShoulder  2.30445 4.28253 23.4429
RightArm  -19.0955 -14.6268 15.7335
RightForeArm  -13.6817 11.1878 5.19551
RightHand  -2.15046 6.68821 -20.8714
LeftUpLeg  -4.36453 10.9214 5.28988
LeftLeg  12.3265 5.46739 0.481355
LeftFoot  -2.99818 0.0667475 -0.680092
LeftToes  1.06246e-005 4.65855e-005 -8.18504e-006
132
root  -81.878 41.4396 -8.53029 55.7094 -89.2169 -61.128
RightUpLeg  0.215468 -9.09468 -5.13992
RightLeg  8.42892 -5.40817 3.45878
RightFoot  -0.550915 0.203606 -2.19376
RightToes  0.000482159 0.542163 -0.142577
Spine  9.26872 0.523328 4.37239
Spine1  -0.25086 0.601937 1.58467
HEad  -8.55616 -1.44903 -2.47736
LeftShoulder1  2.02196 -3.20549 -23.8038
LeftArm  -17.8049 20.2258 -9.00895
LeftForeArm  11.8794 -7.17783 -1.28491
LeftHand  -0.25398 0.0180481 5.50724
RightShoulder  1.52902 1.75134 22.817
RightArm  -22.1731 -10.3415 13.6602
RightForeArm  -10.5717 9.77284 4.32692
RightHand  -2.03898 6.67829 -19.7787
LeftUpLeg  -3.07572 9.53503 5.31389
LeftLeg  10.9311 6.53513 -0.0154097
LeftFoot  -1.83941 0.0210116 -0.115554
LeftToes  1.06246e-005 4.65855e-005 -8.18504e-006
133
root  -82.1225 41.5375 -8.58418 8.51608 -89.2149 -13.6546
RightUpLeg  0.803009 -8.85207 -5.44381
RightLeg  7.52036 -5.95608 3.22318
RightFoot  -0.501632 0.194263 -2.08144
RightToes  0.000482159 0.542163 -0.142577
Spine  9.28326 0.373303 2.14007
Spine1  -2.05002 0.133902 2.75723
HEad  -7.38663 -1.90693 -1.98227
LeftShoulder1  1.89293 -3.33503 -21.2616
LeftArm  -18.2324 20.5517 -6.92239
LeftForeArm  12.6303 -7.67572 -0.961708
LeftHand  -0.25398 0.0180481 5.50724
RightShoulder  1.37858 1.91924 19.2018
RightArm  -25.3207 -11.3593 12.8502
RightForeArm  -4.23711 9.37894 2.9407
RightHand  -1.62108 5.63927 -17.4033
LeftUpLeg  -1.96579 8.22621 5.14617
LeftLeg  8.90239 7.88874 -0.841733
LeftFoot  -1.37587 -0.015513 0.275156
LeftToes  1.06246e-005 4.65855e-005 -8.18504e-006
134
root  -82.3828 41.6395 -8.59634 -16.5605 -89.1327 12.0603
RightUpLeg  1.21095 -8.69565 -5.70093
RightLeg  6.16022 -6.19425 3.24065
RightFoot  -0.265569 0.182295 -1.90041
RightToes  0.000482159 0.542163 -0.142577
Spine  8.62922 0.367348 0.804809
Spine1  -3.72487 -0.0255484 3.35552
HEad  -5.2256 -2.86903 -2.0075
LeftShoulder1  1.90682 -3.78564 -19.4644
LeftArm  -17.3656 20.0463 -4.11429
LeftForeArm  10.8717 -7.21174 -1.11593
LeftHand  -0.25398 0.0180481 5.50724
RightShoulder  1.19035 2.10767 14.4426
RightArm  -20.6406 -12.8642 11.5533
RightForeArm  -8.08914 8.46527 3.9375
RightHand  -1.95362 6.7267 -18.6905
LeftUpLeg  -0.783667 6.88141 5.21811
LeftLeg  5.99106 9.21583 -2.24687
LeftFoot  -0.656813 -0.0119191 0.169309
LeftToes  1.06246e-005 4.65855e-005 -8.18504e-006
135
root  -82.637 41.726 -8.57447 -32.9255 -89.238 29.2848
RightUpLeg  1.41142 -8.61672 -5.85356
RightLeg  4.62229 -6.11382 3.39315
RightFoot  0.162624 0.154339 -1.52095
RightToes  0.000482159 0.542163 -0.142577
Spine  5.95092 0.272458 1.97933
Spine1  -0.710448 0.437343 -0.311167
HEad  -5.78957 -5.469 -0.161784
LeftShoulder1  1.12752 -1.55757 -15.297
LeftArm  -19.8177 15.6268 -4.25718
LeftForeArm  10.7486 -7.41179 -0.860622
LeftHand  -0.25398 0.0180481 5.50724
RightShoulder  0.516244 -1.20586 15.6289
RightArm  -5.22238 -9.54503 5.83828
RightForeArm  -29.8482 9.88118 9.44731
RightHand  -2.93157 8.73356 -24.2978
LeftUpLeg  -0.000133436 6.23965 5.30841
LeftLeg  3.42803 9.88669 -3.39869
LeftFoot  0.144418 0.00605685 -0.074737
LeftToes  1.06246e-005 4.65855e-005 -8.18504e-006
136
root  -82.849 41.7816 -8.55929 -47.65 -89.2376 44.9825
RightUpLeg  1.20057 -8.4766 -5.88664
RightLeg  3.52452 -6.18549 3.41984
RightFoot  0.438587 0.130928 -1.22891
RightToes  0.000482159 0.542163 -0.142577
Spine  4.82758 -0.0753807 1.08954
Spine1  -1.28828 0.10271 -0.686395
HEad  -4.84476 -6.94532 0.253297
LeftShoulder1  0.664915 -0.130292 -11.0411
LeftArm  -22.0022 15.5494 -4.79491
LeftForeArm  11.8486 -9.78995 -0.544034
LeftHand  -0.25398 0.0180481 5.50724
RightShoulder  0.506069 -1.10192 13.9685
RightArm  -4.9553 -8.4785 3.52241
RightForeArm  -32.2808 7.28312 9.85739
RightHand  -3.01639 9.03625 -24.3493
LeftUpLeg  0.0868258 6.17202 5.15495
LeftLeg  1.88341 10.171 -3.85158
LeftFoot  0.583493 0.00558471 -0.0869963
LeftToes  1.06246e-005 4.65855e-005 -8.18504e-006
137
root  -83.007 41.8088 -8.55857 -52.4288 -89.146 50.6698
RightUpLeg  0.669506 -8.27639 -5.79854
RightLeg  3.0681 -6.46786 3.30017
RightFoot  0.435284 0.121291 -1.14695
RightToes  0.000482159 0.542163 -0.142577
Spine  4.34778 -0.238921 -0.197518
Spine1  -2.12594 -0.288805 0.471004
HEad  -4.68244 -8.7515 -0.292914
LeftShoulder1  0.469097 0.709441 -9.22169
LeftArm  -20.6494 14.4571 -3.693
LeftForeArm  9.17463 -9.87246 -1.26786
LeftHand  -0.25398 0.0180481 5.50724
RightShoulder  0.246654 -2.04352 9.61281
RightArm  -3.51132 -7.90501 3.59168
RightForeArm  -35.1115 5.69726 10.3722
RightHand  -3.18533 9.48675 -24.9161
LeftUpLeg  -0.213011 5.92533 4.89122
LeftLeg  0.960968 10.551 -3.94943
LeftFoot  0.804951 -0.0139571 0.0853932
LeftToes  1.06246e-005 4.65855e-005 -8.18504e-006
138
root  -83.1213 41.8194 -8.54864 -49.4482 -89.1666 48.3529
RightUpLeg  0.235598 -8.10242 -5.65837
RightLeg  2.83067 -6.66091 3.25054
RightFoot  0.417265 0.108332 -1.02406
RightToes  0.000482159 0.542163 -0.142577
Spine  4.66724 -0.461087 -1.22041
Spine1  -3.64482 -0.68535 1.48734
HEad  -4.48051 -10.2259 -0.753691
LeftShoulder1  0.355991 1.11744 -7.10709
LeftArm  -18.9816 13.5196 -2.66578
LeftForeArm  8.31779 -8.28919 -1.67469
LeftHand  -0.25398 0.0180481 5.50724
RightShoulder  0.156313 -2.29961 5.30723
RightArm  -1.89613 -8.22674 3.48647
RightForeArm  -32.9152 3.82097 10.5845
RightHand  -2.82922 8.82111 -23.2344
LeftUpLeg  -0.588647 5.78482 4.79344
LeftLeg  0.547819 10.6311 -3.95277
LeftFoot  0.963977 -0.0284775 0.211029
LeftToes  1.06246e-005 4.65855e-005 -8.18504e-006
139
root  -83.2039 41.8247 -8.51814 -39.3827 -89.2324 38.6798
RightUpLeg  0.155882 -8.03546 -5.56596
RightLeg  2.41536 -6.69622 3.36201
RightFoot  0.546402 0.0865151 -0.794847
RightToes  0.000482159 0.542163 -0.142577
Spine  5.41914 -0.761945 -1.95297
Spine1  -5.14579 -1.10176 2.22947
HEad  -4.36823 -11.1368 -1.04175
LeftShoulder1  0.28184 1.30283 -4.75014
LeftArm  -16.9969 13.1745 -2.2407
LeftForeArm  6.3023 -6.47768 -2.19922
LeftHand  -0.25398 0.0180481 5.50724
RightShoulder  0.137242 -2.15163 1.96429
RightArm  -0.622672 -8.73236 2.97508
RightForeArm  -30.2178 2.17557 10.6907
RightHand  -2.49436 8.39375 -21.2193
LeftUpLeg  -0.971515 5.82884 4.86811
LeftLeg  0.691122 10.5048 -3.91947
LeftFoot  0.946384 -0.0306219 0.225312
LeftToes  1.06246e-005 4.65855e-005 -8.18504e-006
140
root  -83.2646 41.8307 -8.47646 -29.1472 -89.2308 28.7013
RightUpLeg  0.223434 -8.05279 -5.55854
RightLeg  1.95098 -6.69673 3.49568
RightFoot  0.683331 0.077729 -0.69325
RightToes  0.000482159 0.542163 -0.142577
Spine  6.22504 -1.08273 -2.70518
Spine1  -6.28751 -1.53982 3.01688
HEad  -4.52142 -11.6246 -1.22203
LeftShoulder1  0.233533 1.38736 -2.76463
LeftArm  -15.2188 13.453 -2.04723
LeftForeArm  4.78818 -5.33525 -2.69787
LeftHand  -0.25398 0.0180481 5.50724
RightShoulder  0.123618 -1.98182 -0.348456
RightArm  -0.16678 -8.86541 2.23742
RightForeArm  -28.5804 0.711568 10.6631
RightHand  -2.29871 8.31028 -19.7323
LeftUpLeg  -1.25232 5.85369 4.89605
LeftLeg  0.877537 10.4896 -3.88142
LeftFoot  0.85045 -0.0336093 0.235037
LeftToes  1.06246e-005 4.65855e-005 -8.18504e-006
141
root  -83.3155 41.8351 -8.43486 -39.1491 -89.3733 38.985
RightUpLeg  0.0578527 -8.05955 -5.57937
RightLeg  1.77682 -6.54814 3.51659
RightFoot  0.708992 0.0797275 -0.70914
RightToes  0.000482159 0.542163 -0.142577
Spine  6.87234 -1.23862 -3.662
Spine1  -7.20252 -1.85192 4.12531
HEad  -4.74101 -11.956 -1.45934
LeftShoulder1  0.202542 1.47465 -1.58373
LeftArm  -13.3146 13.89 -1.73805
LeftForeArm  4.20079 -4.61676 -3.26621
LeftHand  -0.25398 0.0180481 5.50724
RightShoulder  0.11262 -1.75495 -2.2341
RightArm  1.00076 -8.44657 1.4836
RightForeArm  -27.7585 -1.19263 10.9621
RightHand  -2.07136 7.97364 -18.2747
LeftUpLeg  -1.38363 5.76731 4.80137
LeftLeg  0.708325 10.7622 -3.88044
LeftFoot  0.895551 -0.0410574 0.311036
LeftToes  1.06246e-005 4.65855e-005 -8.18504e-006
